<?xml version="1.0" encoding="utf-8"?>
<!-- Generator: Adobe Illustrator 19.2.0, SVG Export Plug-In . SVG Version: 6.00 Build 0)  -->
<svg version="1.1" xmlns="http://www.w3.org/2000/svg" xmlns:xlink="http://www.w3.org/1999/xlink" x="0px" y="0px"
	 viewBox="0 0 800 600" style="enable-background:new 0 0 800 600;" xml:space="preserve">
<style type="text/css">
	.st0{font-family:'TimesNewRomanPSMT';}
	.st1{font-size:444.5663px;}
	.st2{fill:#FFFFFF;}
	.st3{fill:#ED1C24;}
</style>
<g id="Layer_1">
	<text transform="matrix(1 0 0 1 100.9272 408.957)" class="st0 st1">adit</text>
</g>
<g id="Layer_3">
	<g id="HFvVoo.tif_1_">
		<g>
			<path class="st2" d="M590.5,60c20.8,0-55.9,0-38.7,0c-2.4,0.6-4.1,1.8-5.1,3.8c-0.1,0.2-0.2,0.3-0.4,0.4
				c-1.7,1.2-2.5,2.7-2.4,4.5c0.3,5.9,0.5,11.7,1,17.6c0.5,5.9,1.3,11.7,2.1,17.6c0.1,0.9-0.1,1.1-1.2,1.2
				c-10.8,0.6-21.7,1.3-32.5,1.9c-2.7,0.2-5.2,0.9-7.6,1.9c-2.9,1.2-4.4,4.2-3.8,7.5c0.2,1.2,1,2.4,1.1,3.7
				c0.4,6.8,0.6,13.6,0.9,20.4c0.1,2.2,0,4.4,0.2,6.5c0.2,2.2,1.8,3.5,4.1,4.3c1.9,0.6,3.9,0.9,5.9,0.9c11.6,0,23.1,0,34.7,0
				c1.1,0,1.4,0.2,1.4,1.1c0,1.6,0.1,3.2,0.2,4.9c0.3,8.5,0.5,17,0.8,25.5c0.1,2.1,1,3.9,3.2,4.8c1.7,0.7,3.7,1.2,5.6,1.3
				c11.4,0.1,22.8,0.1,34.2,0.1c4.5,0,7.7-2.7,7.7-6.5c-0.2-10.5-0.5-21.1-0.7-31.6c0-0.4,0-0.8,0-1.3c0.6,0,1.1,0,1.5,0
				c6.2,0,12.3,0,18.5,0c7.1,0,14.1,0,21.2,0c2.7,0,5.1-0.6,6.3-2.8c1-1.9,1.9-4,2.3-6.1c0.4-2.3,0.2-4.7,0.2-7.1
				c0-8.2,0-16.4,0-24.5c0-1.6-0.1-3.3-1.5-4.4c-2.5-2-5.3-3.5-9.1-3.5c-12.8,0.1-25.6,0-38.5,0c-0.5,0-1,0-1.5,0
				c-0.1-0.4-0.1-0.6-0.1-0.9c-0.2-3.7-0.4-7.4-0.6-11.1c-0.4-7.6-0.7-15.1-1.1-22.7c-0.2-4.2-2.1-6-6.9-7
				C591.4,60.3,590.9,60.1,590.5,60z"/>
			<path d="M590.5,60c0.4,0.1,0.9,0.3,1.3,0.4c4.7,0.9,6.6,2.8,6.9,7c0.4,7.6,0.7,15.1,1.1,22.7c0.2,3.7,0.4,7.4,0.6,11.1
				c0,0.3,0.1,0.5,0.1,0.9c0.5,0,1,0,1.5,0c12.8,0,25.6,0.1,38.5,0c3.8,0,6.6,1.5,9.1,3.5c1.4,1.1,1.5,2.8,1.5,4.4
				c0,8.2,0,16.4,0,24.5c0,2.4,0.2,4.8-0.2,7.1c-0.4,2.1-1.2,4.1-2.3,6.1c-1.2,2.2-3.7,2.8-6.3,2.8c-7.1,0-14.1,0-21.2,0
				c-6.2,0-12.3,0-18.5,0c-0.4,0-0.9,0-1.5,0c0,0.5,0,0.9,0,1.3c0.2,10.5,0.5,21.1,0.7,31.6c0.1,3.8-3.2,6.5-7.7,6.5
				c-11.4,0-22.8,0.1-34.2-0.1c-1.9,0-3.8-0.6-5.6-1.3c-2.2-0.9-3.2-2.7-3.2-4.8c-0.3-8.5-0.5-17-0.8-25.5c0-1.6-0.2-3.2-0.2-4.9
				c0-0.9-0.3-1.2-1.4-1.1c-11.6,0-23.1,0-34.7,0c-2.1,0-4-0.3-5.9-0.9c-2.4-0.8-3.9-2.2-4.1-4.3c-0.2-2.2-0.1-4.3-0.2-6.5
				c-0.3-6.8-0.5-13.6-0.9-20.4c-0.1-1.2-0.8-2.4-1.1-3.7c-0.6-3.3,0.9-6.3,3.8-7.5c2.4-1,4.9-1.7,7.6-1.9
				c10.8-0.6,21.7-1.3,32.5-1.9c1-0.1,1.3-0.3,1.2-1.2c-0.8-5.9-1.6-11.7-2.1-17.6c-0.5-5.8-0.7-11.7-1-17.6
				c-0.1-1.8,0.7-3.4,2.4-4.5c0.2-0.1,0.3-0.2,0.4-0.4c0.9-2,2.7-3.2,5.1-3.8C564.7,60,577.6,60,590.5,60z M558.7,72.6
				c0.2,2.9,0.2,5.8,0.5,8.6c1.1,9.9,2.3,19.8,3.5,29.7c0.4,3.2-1.2,5.2-4.8,5.7c-1.8,0.2-3.6,0.4-5.4,0.6c-9,0.6-18,1.1-27.1,1.7
				c-2.5,0.2-5.1,0.3-7.7,0.5c0.3,6.8,0.6,13.5,0.9,20.2c0.6,0,1.1,0,1.6,0c12,0,24,0,36,0c0.5,0,1.1,0,1.6,0
				c2.6,0.1,4.6,1.1,5.7,3.1c1.2,2.1,1.1,4.3,1.2,6.5c0.4,7.5,0.6,15,0.8,22.6c0.1,1.7,0,3.5,0,5.3c7.3,0,14.3,0,21.4,0
				c0-0.3,0.1-0.5,0.1-0.8c-0.3-9.8-0.6-19.6-1-29.4c-0.1-2,0.2-3.9,1.1-5.8c0.4-0.8,1.1-1.5,1.9-2.1c1.4-1.1,3.2-1.2,5-1.2
				c13.6,0,27.2,0,40.8,0c0.5,0,0.9,0,1.4,0c0-7.8,0-15.5,0-23.3c-0.6,0-1.1,0-1.6,0c-13.3,0-26.7,0-40,0c-0.7,0-1.4,0-2.1,0
				c-2.9-0.2-5.1-1.8-5.8-4.2c-0.4-1.4-0.7-2.9-0.8-4.4c-0.5-10.6-1-21.1-1.5-31.7c0-0.5-0.1-1-0.1-1.6
				C575.7,72.6,567.3,72.6,558.7,72.6z"/>
			<path class="st2" d="M558.7,72.6c8.6,0,17,0,25.5,0c0,0.6,0.1,1.1,0.1,1.6c0.5,10.6,1,21.1,1.5,31.7c0.1,1.5,0.4,3,0.8,4.4
				c0.7,2.4,7.2,4.2,7.9,4.2c13.3,0,26.7,0,40,0c0.5,0,1,0,1.6,0c0,7.8,0,15.5,0,23.3c-0.5,0-1,0-1.4,0c-13.6,0-27.2,0-40.8,0
				c-1.8,0-3.6,0.1-5,1.2c-0.8,0.6-1.5,1.3-1.9,2.1c-0.9,1.8-1.2,3.7-1.1,5.8c0.4,9.8,0.7,19.6,1,29.4c0,0.2,0,0.5-0.1,0.8
				c-7.1,0-14.1,0-21.4,0c0-1.8,0-3.5,0-5.3c-0.2-7.5-0.4-15-0.8-22.6c-0.1-2.2,0-4.4-1.2-6.5c-1.1-2.1-3.1-3-5.7-3.1
				c-0.5,0-1.1,0-1.6,0c-12,0-24,0-36,0c-0.5,0-1,0-1.6,0c-0.3-6.7-0.6-13.4-0.9-20.2c2.6-0.2,5.2-0.3,7.7-0.5
				c9-0.6,18-1.1,27.1-1.7c1.8-0.1,3.6-0.3,5.4-0.6c3.6-0.5,5.2-2.5,4.8-5.7c-1.2-9.9-2.4-19.8-3.5-29.7
				C558.9,78.4,558.9,75.6,558.7,72.6z"/>
		</g>
	</g>
</g>
<g id="Layer_2">
	<g>
		<g>
			<g>
				<g>
					<g>
						<path class="st3" d="M54,95.3c0.5-3.3-0.5-2.2-0.6-2.7C52.9,98.1,54.2,95.2,54,95.3z"/>
						<path class="st3" d="M52.3,150l-0.3-1c0,0,0.2,2,0.4,4c0.2,2,0.5,4,0.5,4s-0.2-1.8-0.3-3.5C52.4,151.8,52.3,150,52.3,150z"/>
						<path class="st3" d="M55.1,201c0.4-2.5-0.1-7.1-0.8-12.2c-0.3-2.6-0.6-5.3-0.8-7.9c-0.1-1.3-0.2-2.6-0.3-3.9
							c-0.1-1.3-0.1-2.5-0.1-3.6l0.3-1.5l-1.3-4.1C52.5,179,54.7,193.2,55.1,201z"/>
						<path class="st3" d="M56.2,228.5c0.3-1.8,1.5,5.8-1-6.3c0,0.6,0,0.8,0.1,1.2C55.5,224.5,55.7,226,56.2,228.5z"/>
						<path class="st3" d="M55.2,223.4c-0.5-2.7-0.4-1.8-0.3-0.7C55.1,223.8,55.3,225.2,55.2,223.4z"/>
						<path class="st3" d="M60.5,247.9c0,0-0.6-1.7-1.1-3.4c-0.5-1.7-1-3.4-1-3.4c0,0.8,0.3,2.7,0.5,4.2c0.3,1.5,0.4,2.5,0,1.3
							C61,253.6,61,252,60.5,247.9z"/>
						<path class="st3" d="M63.1,254.2l-1.1-3.5C62.1,251.3,62.2,252.3,63.1,254.2z"/>
						<path class="st3" d="M59.8,243.1c0,0,0.5,1.9,1.1,3.8c0.6,1.9,1.1,3.8,1.1,3.8c0-1.1,0.4-1.3-1-3.5
							C61.6,247.7,60.8,246.3,59.8,243.1z"/>
						<path class="st3" d="M59.1,238.7c-0.5-4-1.4-9.1,0.6-2.2c-0.8-3.3-1.3-5.7-1.7-7.2c-0.4-1.5-0.6-2-0.7-1.8
							c-0.1,0.3,0,1.4,0.3,3.2c0.1,0.9,0.3,2.1,0.6,3.4C58.4,235.6,58.8,237.1,59.1,238.7z"/>
						<path class="st3" d="M56.9,203.4c0,0-0.1-1.3-0.1-2.7c0-0.7-0.1-1.3-0.1-1.8c0-0.5,0-0.8,0-0.8l-0.9-4.5
							c0.2,1.1,0.4,3.7,0.5,5.9C56.5,201.7,56.7,203.6,56.9,203.4z"/>
						<path class="st3" d="M72.2,290.8c0.4,0.3,0-2.5,0.2-3.2l-2-4.9c0.3,1.3,0.8,3.2,1.2,4.8C72,289.2,72.3,290.6,72.2,290.8z"/>
						<path class="st3" d="M72.3,287.6l3.1,7.3C73.1,288.3,72.5,287.1,72.3,287.6z"/>
						<path class="st3" d="M64.9,255c0,0-1-3.1-2-6.1c-0.5-1.5-1-3.1-1.4-4.2c-0.4-1.2-0.6-1.9-0.6-1.9s0.3,0.9,0.7,2.3
							c0.4,1.4,1,3.2,1.6,5.1c0.6,1.8,1.2,3.7,1.6,5c0.5,1.4,0.8,2.3,0.8,2.3s-0.2-0.6-0.3-1.2C65.1,255.6,64.9,255,64.9,255z"/>
						<path class="st3" d="M83,319l-2.4-3.9c0,0,1,1.7,2,3.5c1.1,1.7,2.1,3.4,2.1,3.4L83,319z"/>
						<path class="st3" d="M91.5,337.1c-1-1.4-0.7-0.2-0.4,0.9c0.3,1.1,0.6,2.2-0.3,0.7c1.3,2.4,2.6,4.6,3.8,6.6
							c0.6,1,1.2,2,1.8,2.9c0.6,0.9,1.2,1.8,1.8,2.7c-0.6-0.9-1.2-1.9-1.7-2.9c-0.5-1-1.1-2.1-1.6-3.2
							C93.8,342.4,92.6,340,91.5,337.1z"/>
						<path class="st3" d="M102.1,356.7c-1.2-1.9-2.5-3.8-3.9-5.9C99.5,352.9,100.8,354.8,102.1,356.7z"/>
						<path class="st3" d="M80,307.5c0,0.6,0.1,1.9,1.6,6.1l-0.4-3.2C80.8,309.5,80.4,308.5,80,307.5z"/>
						<path class="st3" d="M81.2,310.3l0,0.1c1.3,3.1,2.1,5.3,2.5,6.2C83.4,315.8,82.6,313.9,81.2,310.3z"/>
						<path class="st3" d="M79.8,306.8c0.1,0.3,0.2,0.5,0.3,0.7C80,307.2,80,307,79.8,306.8z"/>
						<path class="st3" d="M69.7,275c1.8,4.3,5.3,13.2,3.1,4.2C71.3,276.3,72.5,281.5,69.7,275z"/>
						<path class="st3" d="M79.4,302.8c0,0-0.7-2-1.4-3.9c-0.4-1-0.7-2-0.9-2.7c-0.2-0.7-0.4-1.2-0.4-1.2c-0.2,0.2,0,1.8-1-0.3
							c0,0,0.2,0.5,0.6,1.3c0.3,0.8,0.8,1.8,1.3,2.8C78.4,300.8,79.4,302.8,79.4,302.8z"/>
						<polygon class="st3" points="81.1,306.5 79.4,302.8 80.4,305.7 						"/>
						<path class="st3" d="M96.1,343.7c1.9,3.1,3.9,6.5,6,10.4c-2.1-4.3-4.4-8.7-6.5-12.9C95.1,340.7,93.8,339.1,96.1,343.7z"/>
						<path class="st3" d="M88.5,327.6c0.1,0.2,0.3,0.5,0.4,0.7C88.8,327.8,88.6,327.4,88.5,327.6z"/>
						<path class="st3" d="M125.2,391.4c-0.1-0.2-0.2-0.4-0.3-0.7c-0.1,0-0.1,0-0.2-0.1L125.2,391.4z"/>
						<path class="st3" d="M95.5,340.4c-1.5-3.3-2.6-5.1-3.7-6.9c0.6,1.2,1.2,2.4,1.9,3.7c0.7,1.3,1.3,2.6,2,3.9
							C95.9,341.4,96,341.4,95.5,340.4z"/>
						<path class="st3" d="M108.6,367.2c-0.8-1.7-1.7-3.6-2.7-5.6C106.6,363.3,108.1,366.7,108.6,367.2z"/>
						<path class="st3" d="M89.2,329.5c-0.1-0.2-0.2-0.3-0.3-0.5C89.3,330.1,89.3,330,89.2,329.5z"/>
						<path class="st3" d="M89.2,329.5c0.9,1.6,1.7,2.8,2.5,4.1c-1-1.9-2-3.7-2.8-5.3C89.1,328.7,89.2,329.1,89.2,329.5z"/>
						<path class="st3" d="M137.4,399c-0.3,0-0.8-0.5-1.6-1.2c-0.8-0.8-1.7-1.9-2.8-3.3c-1.1-1.3-2.2-2.9-3.4-4.6
							c-1.1-1.7-2.2-3.5-3.1-5.3c-4.9-6.2-4.2-0.5-1.5,6.1c0.4,0,0.6-0.1,5.8,6.3c-0.3-0.6-1.1-1.9-2-3.4c-0.9-1.5-1.9-3.2-2.7-4.6
							c-1.6-2.9-2.5-4.8-0.3-2.2c3.2,4.4,4.5,6.2,5.2,7.6c0.7,1.3,1,2.2,2.4,4.5c-1.9-4.2,9.4,10.2,9.2,7.4l-6.1-7.3
							C136.4,398.7,138.8,401.2,137.4,399z"/>
						<path class="st3" d="M116.3,377.6l-1.9-2.8c2,3.3,3.2,5.9,5.5,10.5c3.5,4.5,4.4,5.3,4.8,5.5c0,0-2.3-3.5-4.6-7
							c-2.2-3.5-4.5-7.1-4.5-7.1L116.3,377.6z"/>
						<path class="st3" d="M106.6,361.7c1,0.9,2.6,3.1,3.8,4.5c1.2,1.3,1.9,1.8,1-0.5c-5-8.5-4.1-5.7-7.4-10.6
							c8.1,13.9-2.7-3.8,2.6,6.6c-1.7-2.7-3.2-5.1-4.5-7.5c1.3,2.6,2.6,5.1,3.7,7.5c-0.1-0.1-0.1-0.2-0.1-0.3l0-0.1c0,0,0,0,0,0
							c-0.3-0.7-0.3-0.9,0-0.2c0,0,0.1,0.2,0.2,0.3C106.1,361.3,106.3,361.5,106.6,361.7c2.2,4.1,0.2,0.8-0.6-0.5
							c-0.1,0-0.2-0.1-0.2-0.1c0,0,0,0,0,0.1c0,0,0.5,0.9,1.3,2.2c0.8,1.3,1.8,3,3,4.7c2.2,3.4,4.4,6.8,4.4,6.8
							c-0.8-1.5-1.8-3.1-3.1-5.2c-0.6-1-1.3-2.2-2.1-3.5C108.4,364.8,107.6,363.3,106.6,361.7z"/>
						<path class="st3" d="M77.3,286.8c0.1,0.5,0,0.5,0,0.5C77.7,288.2,77.9,288.6,77.3,286.8z"/>
						<path class="st3" d="M79,293.1c-0.5-1.1-1.2-1.9-2.3-5.4c-0.9-3.2,0.4-0.1,0.6-0.4c-1-2.1-3.1-7.4-1.3-0.4l0.5,1
							c0.9,3.1,1.8,6.7,2.5,9.4c0.7,2.7,1,4.5,0.8,3.9C79.8,299.1,79.7,297.4,79,293.1z"/>
						<path class="st3" d="M91.6,328.3c0,0,1.5,3,3.1,5.9c0.8,1.5,1.5,3,2.2,4.1c0.6,1.1,1,1.8,1,1.8s-0.6-1.6-1.2-3.2
							c-0.3-0.8-0.6-1.6-0.8-2.2c-0.2-0.6-0.4-1-0.4-1l-0.3,0.5C92.1,327.3,92.3,329,91.6,328.3z"/>
						<path class="st3" d="M125.7,393l-1.8-1c0,0,0.3,0.4,0.8,0.9c0.5,0.5,1.2,1.2,1.9,1.9c1.4,1.4,2.8,2.8,2.8,2.8L125.7,393z"/>
						<path class="st3" d="M136.1,407l-1,0c0,0,0.8,0.9,1.6,1.7c0.8,0.9,1.6,1.7,1.6,1.7s-0.6-0.8-1.1-1.7
							C136.7,407.8,136.1,407,136.1,407z"/>
						<path class="st3" d="M735.2,175.2l-2.7-2.7C733.8,173.8,734.6,174.6,735.2,175.2z"/>
						<path class="st3" d="M752.2,197.2l0.7,0.3C752,196.6,751.6,196.2,752.2,197.2z"/>
						<path class="st3" d="M513,560.5c1.5-0.1,2.9-0.2,4.4-0.2c1.4-0.1,2.7-0.2,3.9-0.3c2.2-0.2,3.7-0.4,3.2-0.8l-1.9-0.5
							c-1.9,0.5-3.7,0.9-5.3,1.2C515.7,560.2,514.3,560.4,513,560.5z"/>
						<path class="st3" d="M755.7,410.5c-0.4,0.4-0.8,0.8-1.2,1.2c-0.6,1.3-1.1,2.5-1.6,3.6C753.7,413.8,754.7,412.2,755.7,410.5z"
							/>
						<path class="st3" d="M754.9,405.1c0,0,1.1-1.5,2.3-2.9c1.1-1.5,2.2-3,2.2-3C758.4,400.6,757,402.5,754.9,405.1z"/>
						<path class="st3" d="M612.9,86.6l-4.4-1.1C614.8,88.5,612.2,86.8,612.9,86.6z"/>
						<path class="st3" d="M270.8,522.7c2.1,1.3,4,2.5,5.8,3.5c1.8,1,3.4,1.9,5,2.7C276.3,525.8,272.5,522.8,270.8,522.7z"/>
						<path class="st3" d="M749.4,177.9c-1.6-1.8-2.4-2.5-2.5-2.3C748.6,177.4,749.6,178.4,749.4,177.9z"/>
						<path class="st3" d="M294.4,535.1c-0.8-0.4-1.5-0.9-2.3-1.3c-3.3-1.4-6.7-2.9-10.6-4.9C285.2,531.3,289.8,533.6,294.4,535.1z"
							/>
						<path class="st3" d="M110.3,196.4c-0.3,0.3-0.6,0.6-0.9,0.8C109.4,197.4,109.7,197,110.3,196.4z"/>
						<path class="st3" d="M16.4,328.7c0.6-1.5,1.6-3.9,2.6-6.2C18.5,323.6,17.7,325.5,16.4,328.7z"/>
						<path class="st3" d="M182.8,459.5C180,457,182.3,459.2,182.8,459.5L182.8,459.5z"/>
						<path class="st3" d="M172.4,444.5c0.6,0.5,1.1,0.8,1.3,0.8C173.3,445.1,172.9,444.9,172.4,444.5z"/>
						<path class="st3" d="M330.5,543.8c0.1,0,0.2,0.1,0.3,0.1C329.8,543.4,330,543.5,330.5,543.8z"/>
						<path class="st3" d="M179,455.4c0.9,1,2,2.2,3.3,3.4C181.7,458.2,180.7,457.2,179,455.4z"/>
						<path class="st3" d="M179.2,456.2c-0.9-0.9-1.6-1.6-2.2-2.3C176.6,453.6,176.8,454,179.2,456.2z"/>
						<path class="st3" d="M186.5,463c-1.6-1.4-3-2.8-4.3-4.2c0.5,0.5,0.7,0.8,0.5,0.7C183.6,460.2,184.7,461.3,186.5,463z"/>
						<path class="st3" d="M362.9,49.4c-0.2,0-0.5,0-0.8,0.1C358.6,50.6,360.2,50.2,362.9,49.4z"/>
						<path class="st3" d="M601.3,523.9c-0.1,0.1-0.2,0.1-0.4,0.2c0.2-0.1,0.4-0.1,0.5-0.2L601.3,523.9z"/>
						<path class="st3" d="M612.9,518c-4.6,3.3-7.5,4.4-11.5,5.9l5,0.6c0,0,0.4-0.4,1-1c0.6-0.6,1.4-1.4,2.3-2.2
							C611.3,519.6,612.9,518,612.9,518z"/>
						<path class="st3" d="M686.4,130.1c0,0,0.4,0.4,1.1,1c0.6,0.6,1.5,1.4,2.3,2.1c0.8,0.8,1.7,1.6,2.3,2.1c0.6,0.6,1,1,1,1
							c-2.3-1.5-4.5-2.8-6.3-4c-1.8-1.2-3.3-2.1-4.2-2.8c-1.9-1.2-1.9-1,1.2,2c1.3-0.7,8.4,4.6,15.2,10.2c3.4,2.8,6.7,5.7,9.4,7.8
							c2.6,2.1,4.6,3.5,5.3,3.2c0,0,1,1.1,2,2.3c1,1.1,2,2.3,2,2.3c-1.2-1.2-1.5-1.3-2.7-2.5c3.8,4.5,5.6,5.7,7.8,7.1
							c1.1,0.7,2.3,1.5,3.9,2.8c0.8,0.7,1.7,1.4,2.6,2.4c1,1,2,2.2,3.3,3.6c3.3,4,5.4,7.1,2.8,4.6c0,0,2.1,2.1,4,4.2
							c1,1.1,2,2.1,2.7,2.9c0.7,0.8,1.2,1.4,1.2,1.4c2,2.7,1.2,2.3-0.9-0.3c0,0,0.7,0.9,1.7,2.2c0.5,0.6,1.1,1.4,1.8,2.2
							c0.6,0.8,1.3,1.7,2,2.6c0.7,0.9,1.3,1.8,2,2.6c0.6,0.8,1.2,1.6,1.7,2.3c1,1.4,1.6,2.3,1.6,2.3l-0.1-0.1
							c1.8,1.8,5.5,6.3,7.2,8.5c2.1,4-1.4-1.8-1.1-0.6c0,0,0.4,0.5,0.9,1.3c0.5,0.8,1.3,1.7,2,2.8c1.4,2,2.8,4.1,2.8,4.1
							c0.7,1.9-0.1,1.2-1.5-0.8c-0.7-1-1.6-2.2-2.4-3.6c-0.9-1.4-1.9-2.9-2.8-4.3c0.6,2.3,1.3,3.9,2,5.2c0.7,1.3,1.5,2.4,2.4,3.8
							c1.9,2.8,4.7,6.6,8.1,15.9c0,0-0.3-0.5-0.7-1.3c-0.4-0.8-0.9-1.8-1.5-2.8c-1.1-2-2.2-4-2.2-4c0.3,1.5,0.8,3,1.4,4.6
							c0.6,1.6,1.2,3.2,1.9,5c1.4,3.5,3,7.6,4.4,12.6c-0.1-0.6-0.5-2.2-0.9-4c-0.4-1.9-1-4-1.4-5.7c-0.4-1.8-0.7-3.1-0.6-3.5
							c0.1-0.4,0.8,0.3,1.9,2.6c0.5,1.4,1.1,3,1.9,4.9c0.7,1.9,1.8,4.1,3,6.7c-0.4,0.2-0.2,1.6,0.5,3.7c0.4,1.1,0.7,2.4,1.2,3.8
							c0.5,1.4,1,3,1.4,4.7l-1.4-0.1c1.2,3.6,1.9,5.2,2.4,6.4c0.6,1.2,1.1,2.1,1.9,4.2c0.4,2.1,0.6,3.7,0.8,5.1
							c0.1,1.4,0.1,2.5,0.1,3.3c-0.1,1.8-0.4,2.7-0.7,3.8c0.7,6.6,0.8,4.3,1,2.2c0.2-2,0.5-3.8,1.6,4.1c0.1,2.8,0.3,5.4,0.4,7.9
							c0.1,1.3,0.1,2.5,0.2,3.7c0.1,1.2,0.1,2.5,0.1,3.7c0.2,5,0.3,10.3,0.1,17.1c-1.4,7.7-0.6-1.4-1.3,1.3c0,0,0.1,1.7,0.1,3.5
							c0.1,1.8,0,3.5,0,3.5c-0.3,1.7-0.5,1.1-0.6,0.8c-0.3,2.9,0,3.1,0.3,3.7c0.2,0.6,0.3,1.6-0.4,6.2c0.1,0.3,0.1,0.9,0,1.6
							c-0.1,0.7-0.4,1.6-0.7,2.6c-0.3,1-0.7,2.1-1.1,3.4c-0.4,1.2-0.9,2.5-1.5,3.9c-1,2.8-2.3,5.7-3.3,8.8c-0.5,1.5-1.1,3-1.6,4.5
							c-0.5,1.5-0.9,2.9-1.3,4.3c-1.4,2.5-0.2-1.6-1-0.9c-0.6,1.9-1.2,3.5-1.6,4.8c-0.5,1.4-0.9,2.5-1.3,3.6c-0.8,2.1-1.3,3.6-1.9,5
							c-0.6,1.4-1.1,2.7-1.7,4.5c-0.7,1.7-1.6,3.9-2.8,6.9c0,0-0.4,0.6-1,1.4c-0.6,0.9-1.4,2-2.2,3.1c-0.8,1.1-1.6,2.3-2.2,3.1
							c-0.6,0.8-1,1.4-1,1.4c2.6-3.2,2.7-2.4,1.7,0.1c-0.5,1.3-1.3,3.1-2.3,5c-1,1.9-2.1,4-3.2,6.1c2-2.1,3.7-4,4.9-5.3
							c0,0-0.5,0.8-1.2,2c-0.7,1.2-1.7,2.8-2.7,4.3c-1,1.6-2,3.1-2.8,4.3c-0.7,1.2-1.3,1.9-1.3,1.9c-1.3,1.3-0.7-0.1,0.3-2.4
							c-0.5,0.9-1,1.7-1.4,2.4c-3.6,3.9-2.5,1.3-0.8-2.1c1.3-1.3,2.5-2.6,3.7-3.8c0.8-1.7,1.4-3.4,1.7-4.6c0.3-1.2,0.4-2-0.2-1.9
							c-0.4,0.9-1.3,2.5-2.4,4.1c0.4-0.9,0.5-1.5,0.2-1.2c-0.4,0.3-1,1.7-2.2,3.8l-3.1,1.8l0,1c0,0-0.8,0.9-1.9,2.3
							c-1.1,1.4-2.7,3.2-4.3,4.9c-1.6,1.8-3.1,3.6-4.4,4.8c-1.2,1.3-2,2.2-2,2.2c-1,1.4-1.9,2.8-2.9,4.1c-1,1.4-1.9,2.7-2.9,4.1
							c-2,2.7-4.1,5.5-6.4,8.4c-4.7,5.8-10.3,12.1-18.5,19.4c3.4-4.3-0.2-2.1-0.8-3.2c5.4-2.8,12.2-11.5,20.2-19.3
							c-4.2,4-3.7,2.7-2.8,1.5c0,0-0.8,0.9-2.1,2.3c-1.2,1.4-3,3.2-4.7,5c-1.7,1.8-3.5,3.6-4.8,4.9c-0.7,0.7-1.2,1.2-1.6,1.6
							c-0.4,0.4-0.6,0.6-0.6,0.6c-0.3-1.1-3.7,2.2-8,5.2c2.2-0.5-0.5,2.2-4.5,5.6c-4,3.4-9.4,7.5-12.5,10.1
							c-0.8-0.3,0.4-1.9,8.4-7.8c-4.8,2.7-7.3,5.3-9.8,7.9c-2.5,2.6-5,5.1-9.8,7.6c2-1.4,3.1-2.1,3.7-2.9c-1.1,0.9-2.6,2.1-4.3,3.3
							c-1.7,1.2-3.5,2.3-5.1,3.3c-3.2,2-5.6,3.1-4.4,2l2-1.3c-6.8,4.3-17.4,10.6-26.6,15.8c-9.2,5.2-17,9.5-17.7,10.8
							c-0.2-0.1,1-2.8,1.7-3.5c0,0-5.8,4.4-11.8,8.7c-3,2.1-6,4.2-8.4,5.8c-2.3,1.5-3.9,2.6-3.9,2.6c1.8-2.3-8.5-1.8,3.5-7.7
							c-3.6,1.3-8.1,2.9-15.4,6.3c2.5-0.8,6.9-0.4,3.6,1c-4.9,1.1-6.6,1.4-8.5,1.9c-1.9,0.5-4.1,1.2-10.1,2.5c3.8-1,0.5,2.6-5.5,4.5
							c0.8-0.6-1.2-2,0.9-2.9c0,0-3.5,1.8-7,3.4c-3.5,1.7-7.1,3.3-7.1,3.3c3.6-1.5,0.1-2-3.4-1.7c0.8,0-2.4,0.9-6.3,1.9
							c-3.9,1.1-8.6,2.1-10.5,2.7l6.5-1.1c-4.2,1-7.4,2-9.9,2.8c-2.6,0.9-4.6,1.8-6.6,2.6c-4,1.7-8.1,3.5-16.7,4.9
							c2-0.8,4.6-3.7-4.1-2.5c-0.9,0.5-2.5,1.2-4.5,2.1c-2,0.9-4.5,2-7.3,3c-5.7,2.2-12.9,4.3-20.6,5.4l-3-0.4c0,0-0.7,0.1-1.8,0.3
							c-1.1,0.2-2.6,0.4-4.1,0.5c-3,0.3-5.9,0.7-5.9,0.7c1.8-0.5,4.5-1.2,7.6-2c3.1-0.9,6.7-1.7,10.4-2.7c7.4-1.9,15.1-4.2,20.5-5.7
							c-3.3,0.2-3.7,0-4.6,0c-0.9,0-2.1,0.2-7,0.7c-3.5-0.2,5.2-1.5,8-2c0,0-1.4,0.2-3.5,0.4c-2.1,0.2-4.9,0.5-7.7,0.8
							c-2.8,0.3-5.6,0.4-7.7,0.6c-1.1,0.1-1.9,0.1-2.6,0.2c-0.6,0-1,0.1-1,0.1c0.3,0.3-0.7,0.6-2.2,1c-1.5,0.3-3.7,0.6-5.9,0.9
							c-4.3,0.6-8.7,0.9-8.2,1.5c0,0,1.5-0.1,3.8-0.3c2.3-0.3,5.4-0.6,8.4-0.9c6.1-0.7,12.2-1.7,12.2-1.7c0.3,0.3-0.4,0.8-1.9,1.3
							c-1.5,0.6-3.8,1.2-6.6,1.8c-5.6,1.2-13.5,2.1-21.6,2.2c-4.1-0.5,3-2.4,2.7-2.9c-1,0.3-4.8,0.5-8.6,0.7c-3.7,0.1-7.4,0-8.1-0.2
							c0,0,0.4,0,1.1-0.1c0.6-0.1,1.5-0.1,2.3-0.2c1.7-0.2,3.4-0.3,3.4-0.3c-2.2-0.2-4.3-0.2-6.2-0.1c-2,0-3.8,0.2-5.8,0.3
							c-1.9,0.1-3.9,0.1-6.1,0c-2.2-0.1-4.5-0.3-7.2-1c-1.8-0.2-4.6-0.9-6.9-1.5c-2.3-0.6-4.3-1.1-4.6-0.7c5.8,2.3,6.5,7.1,2.3,7.8
							c-0.3-0.1-1.7-0.3-3.7-0.7c-1-0.2-2.1-0.4-3.3-0.7c-1.2-0.3-2.5-0.6-3.8-0.9c-5.2-1.2-10.7-2.8-12.7-3.6
							c-5.8-2.3,9.6-1.1,4.6-3.1c-0.3,0.3-3.7,0.2-5.1,0c-3.8-1.1,1.8-0.8-6.5-2.4c-0.4,0.3-1.7,0.2-3.1-0.1c-1.5-0.3-3.1-0.7-4.3-1
							c-2.4-0.6-3-0.8,3.3,1.3c-4.1-0.8-6.2-1.4-8.5-2.1c-2.3-0.7-4.7-1.5-9.4-2.8c2.8,1.7-9.3,0.5-17.4-1.9
							c0.6-0.2-1.1-1.2-1.9-1.7c-4-1.5-7.6-2.8-10.8-4.1c-3.3-1.3-6.3-2.6-9.2-3.9c-1.5-0.7-2.9-1.3-4.4-2c-1.5-0.7-3-1.4-4.5-2.1
							c-1.5-0.7-3.1-1.4-4.8-2.2c-1.6-0.8-3.3-1.6-5.1-2.5c-0.6-0.5-2.6-1.6-4-2.5c-1.4-1-2.3-1.7-0.7-1.2c-2.1-0.8-4.3-1.3-8.6-3.6
							c-3.9-2.8-1.5-1.5,1.2-0.2c2.7,1.3,5.7,2.7,2.8,0.4c-0.2,0.1-1.1-0.1-2.3-0.6c-1.2-0.5-2.9-1.2-4.7-2.1
							c-3.6-1.6-7.9-3.9-11-5.4c0.6,1,4.1,3.2,8.3,5.3c2.1,1,4.3,2.1,6.5,3.1c2.1,1,4.2,1.8,5.8,2.5c-0.7,1.5-12.6-2.3-27.4-10.3
							c-5.9-3.3-6.9-4.3-6.8-4.6c0.1-0.3,1.4,0.1,0.3-0.4c-2.6-1.7-4.9-3.1-6.9-4.3c-2-1.3-3.7-2.3-5.2-3.2
							c-3.1-1.7-5.3-2.9-7.5-4.1c-2.1-1.1-4.2-2.2-6.7-3.9c-2.5-1.7-5.5-3.8-9.4-7.3c-5.9-5.9,1-1.9,0.1-3.7
							c2.2,1.6,4.1,3.1,5.8,4.4c1.7,1.3,3.3,2.6,4.7,3.8c2.8,2.4,5.4,4.5,8.4,6.6c0,0-1.8-1.4-3.6-2.8c-0.9-0.7-1.8-1.4-2.4-1.9
							c-0.7-0.5-1.1-0.9-1.1-0.9c1.5,0.9,3.8,2.3,6,3.8c1.1,0.8,2.3,1.5,3.3,2.3c1.1,0.7,2,1.4,2.8,2c-2.6-2.3-11.2-8.3-20.8-15.8
							c-9.6-7.4-19.9-16.3-26.7-23.1c-2.8-2-7.3-5.9-5.6-3.6c0,0,1.1,1,2.3,2c1.1,1,2.3,2,2.3,2c1.8,2.2-0.6,0.5-2.6-1.1
							c-2.1-1.6-3.9-3.1-1.2-0.3c-1.6-1.3-3.3-2.6-5-4c-1.7-1.4-3.4-2.9-5.2-4.5c-3.6-3.2-7.3-6.9-11.1-11.2l-0.6-2.4
							c0,0.2,1.1,1.7,2.6,3.4c1.5,1.7,3.3,3.6,4.6,4.6c-3.8-3.1-11-14-15.5-17c0,0,1.2,1.7,2.3,3.3c0.6,0.8,1.2,1.7,1.6,2.3
							c0.5,0.6,0.8,1,0.8,1c-0.8-0.7-1.5-1.4-2.3-2.2c-0.8-0.8-1.6-1.5-2.4-2.3c-1.7-1.6-3.4-3.2-5.1-5c-3.4-3.5-6.9-7.3-9.9-11.5
							c2,4.4,1.5,1.8,5.1,8.4c-0.7-1.5,0-1,1.4,0.5c1.4,1.5,3.4,3.9,5.4,6.2c4,4.7,7.8,8.8,5.1,4.4c1.9,3.3,4,5.8,6.3,8.6
							c2.4,2.6,4.9,5.5,7.9,9.5c0.1-0.5-1.9-3,4.1,3.2c0.4,0.2,1.1,0.7,1.6,1.1c0.2,0.2,0.2,0.3,0.4,0.4c-0.1-0.1-0.2-0.2-0.3-0.4
							c0.3,0.2,0.3,0.2-0.1-0.1c-1.3-1.6-2.4-2.9-2.7-3.5c3.6,2.4,13.6,11.9,17.4,14.5c3.7,3.6-1.9-1.1-0.1,1.1c0,0,0.4,0.3,0.9,0.6
							c0.5,0.4,1.2,0.9,2,1.4c1.4,1,2.9,2,2.9,2c0,0.6,2.3,3.1,3.5,4.5c1.2,1.4,1.1,1.8-3.6-2c0,0,0.5,0.4,1.3,1.1
							c0.8,0.7,1.8,1.6,2.9,2.4c2.1,1.7,4.2,3.5,4.2,3.5c4.6,4.5,11.6,10,16.2,12.9c2,1.6,4.8,3.3,6.6,4.3c1.8,1,2.5,1.4,0.5,0.4
							c0,0,3.6,2.4,7.2,4.6c1.8,1.1,3.6,2.3,5,3.1c1.4,0.8,2.3,1.4,2.3,1.4l0,0.3c1.8,1.1,3.6,2.3,5.4,3.4c1.8,1.1,3.7,2.2,5.6,3.2
							c3.8,2.2,7.7,4.2,11.6,6.4c8,4.1,16.2,8.5,24.6,13.3c5.3,2.2,10.7,4.3,19.4,8.2l1.4,1.4c3.5,1.2,8.5,3.4,13.2,5.1
							c1.2,0.4,2.3,0.9,3.4,1.3c1.1,0.4,2.1,0.7,3,1c1.8,0.6,3.3,1,4.1,1c3.4,2.2,11.9,4.9,21.2,7.2c9.3,2.3,19.3,4,25.6,5.2
							l0.7-0.9c8.7,1.5,17.2,2.5,28.2,3l-0.6-1c4.7,0,10.8,0.6,17.5,1.1c6.7,0.4,14.2,0.8,21.7,0.5c-1,0.4-4.8,0.4-7.5,0.2
							c9,0.9,18.4,0.1,27.6-1.2c9.2-1.2,18-2.9,26.1-3.4c3.9-0.9,6.8-1.3,9.6-1.6c-0.4,0.1-0.7,0.1-1,0.2c0.4-0.1,1-0.2,1.6-0.3
							c1.8-0.1,3.6-0.3,5.6-0.6c-1.7,0.1-3.3,0.3-4.7,0.4c1.5-0.3,3.4-0.7,5.5-1.2c1-0.2,2.1-0.5,3.2-0.7c1.1-0.3,2.2-0.6,3.3-0.9
							l2.1,0.5c0.4-0.1,0.7-0.2,1-0.3c4.5-0.6,3.5-1.3,0.9-1.4c2.2-0.7,4.3-1.3,5.8-1.9c4,0.7,11.6-3.4,16.9-3.2
							c0.7-0.4,2.4-1,4.7-1.8c2.2-0.8,5-1.7,7.6-2.7c5.4-1.9,10.6-4.1,11.5-5.3c0.2,0.2,1.5-0.2-0.8,0.6c4.9-1.5,9.8-3,14-5.1
							l2.5,0.4c0,0,0.6-0.3,1.5-0.9c0.9-0.5,2.2-1.2,3.4-1.9c1.2-0.7,2.5-1.4,3.4-1.9c0.9-0.5,1.5-0.9,1.5-0.9
							c6.6-1.9,9.4-2.6,3.5,0.9c3.6-1.9,6.2-3.2,8.2-4.3c2-1,3.4-1.7,4.7-2.4c2.7-1.4,5.1-2.6,11-6.3l-0.3,1c4.5-2.2,11-6.7,14-7.6
							c5.3-1.9,17.4-8.5,30.8-17c6.7-4.3,13.7-9.1,20.5-14c6.7-4.9,13.2-9.8,18.9-14.1c-2.9,0.9-0.2-1,3.2-3.5
							c0.8-0.6,1.7-1.3,2.6-1.9c0.8-0.7,1.6-1.3,2.3-1.9c1.4-1.2,2.3-2.2,2.2-2.8c1.6-0.7,4.7-3.3,1.7,0.3
							c5.2-5.2,9.2-8.9,12.7-12.4c3.5-3.5,6.4-6.8,9.2-11.1c1.5-0.9-1.5,2.9-0.2,2c0.7-1,2.7-3.9,3.9-4.8c1.2-0.9-1,1.9-2.4,3.9
							c9.7-11.5,9-14,8.5-15.8c2.6-2.7,4.4-5,5.8-7.1c1.5-2.1,2.5-4.2,3.6-6.8c1-0.9,2.1-2.3,2.5-2.4c0.3-0.1-0.1,1.1-2.7,4.9
							c1.5-2.1,6-8.7,9.7-15.2c0.9-1.6,1.8-3.2,2.5-4.7c0.8-1.5,1.5-2.9,2-4.1c1.1-2.4,1.7-4.1,1.5-4.4c1-1.3,3.1-6.6,3.5-7.9
							c1.1-2.7,2-4.8,2.7-6.6c0.7-1.8,1.3-3.3,1.8-4.8c0.6-1.5,1-3,1.6-4.8c0.3-0.9,0.6-1.9,1-3c0.3-1.1,0.7-2.3,1-3.7l-1.1,3
							c-0.3-4.8,2.4-9.2,4-18.4l0.1,0.3c2.5-10.4,2.3-12.7,2.6-15c0.1-1.1,0.1-2.3,0.3-4.4c0.1-1.1,0.2-2.4,0.5-4.1
							c0.2-1.7,0.3-3.8,0.6-6.5l-1,1.1c-0.5-0.5-0.6-1.9-0.6-3.9c0-2,0.2-4.6,0.3-7.6c0.1-3,0.1-6.3,0-9.6c-0.2-3.3-0.5-6.6-1.2-9.6
							c0,0,0,1.1,0.1,2.2c0,0.6,0,1.1,0,1.5c0,0.4,0,0.7,0,0.7c-0.3-1.6-0.6-3.6-0.7-5.8c-0.1-2.2-0.2-4.5-0.2-6.9
							c-0.1-4.7-0.4-9.5-1.2-12.8c-0.2-1.5,0.9,2.2,1.6,4.1c-1.7-8.7-2.4-9.2-2.8-9c-0.2,0.1-0.5,0.3-0.9-0.3c-0.5-0.6-1-2-2.2-5
							c-0.2-2.5,2.7,2.4-0.2-6c-0.5-2.2-3.4-8-7-14.5c-3.6-6.5-7.9-13.6-10.4-19.1c0.9,2.6,1.8,5.1-1.6,0.1
							c-2.5-3.9-5.4-9.5-8.8-14.7c-1.6-2.6-3.4-5.1-5.1-7.4c-1.8-2.2-3.5-4.1-5.1-5.5c-0.6-1-0.8-1.4-0.7-1.6
							c-2.4-2.6-6.3-6.9-10.1-10.7c-1-1-1.9-1.9-2.8-2.8c-0.9-0.9-1.8-1.7-2.6-2.4c-1.6-1.5-3-2.6-3.9-3.2
							c-1.1-3.5-9.3-11-17.2-17.3c-7.9-6.4-15.6-11.7-14.6-12.8c0,0-1.1-0.8-2.7-2.1c-1.6-1.2-3.8-2.8-6-4.4
							c-2.2-1.6-4.4-3.1-6.1-4.3c-1.7-1.1-2.8-1.9-2.8-1.9l0.6,0.1c-1.4-1-2.7-1.9-3.9-2.8c-1.2-0.8-2.4-1.5-3.4-2.2
							c-2.1-1.4-3.9-2.4-5.5-3.2c-3.1-1.7-5.4-2.7-7.7-3.7c-2.6-1.9-0.5-0.9-0.2-0.9c-2.1-1.4-4-2.6-5.7-3.7c-1.7-1.1-3.3-2-4.7-2.9
							c-1.4-0.8-2.7-1.6-3.9-2.3c-1.2-0.7-2.4-1.3-3.6-1.9c-2.3-1.2-4.6-2.2-7.2-3.4c-2.7-1.2-5.8-2.4-9.7-4l-1.2-1.7
							c-2.2-0.7-8.6-4.3-16.9-8.3c-8.3-4-18.6-8.4-28.2-11.3c0.2,0,0.7-0.1,2.2,0.3c-5.3-1.7-11.2-3.7-17-5.8
							c-5.9-2-11.8-4.1-17.3-5.9c-11.1-3.5-20.8-5.8-25.2-4.9c0,0-3.7-0.5-7.3-1.1c-1.8-0.2-3.7-0.5-5-0.7c-1.4-0.2-2.3-0.3-2.3-0.3
							c18.7,3.8-3.1,1,4.5,3.1c-3.7-0.6-8.4-1.7-11-2.5c-2.7-0.7-3.3-1.2,1.3-0.6l1.4,0.4c0.9-0.3-0.1-0.8-2.1-1.3
							c-2-0.5-5-1-8.1-1.5c-6.2-1-12.8-1.7-12.5-2.3c-18.7-1.9-37.3-2.7-55.6-2.4c-9.1,0.5-18.2,0.6-27.2,1.7
							c-2.2,0.2-4.5,0.4-6.7,0.6l-3.3,0.3l-3.3,0.5c-4.4,0.7-8.8,1.3-13.2,2l4.3,0.8c0,0-3,0.5-6.1,0.9c-3,0.6-6,1.2-6,1.2
							c-3.2,0.3-4.5-0.3,4.2-1.9c-4.7,0.1-14.3,3.6-14.5,3.9c-2.1,0.3-3.6,0.6-4.6,0.8c-1,0.2-1.5,0.2-1.6,0.1
							c-0.3-0.1,0.8-0.6,2.3-1.2c1.5-0.6,3.4-1.1,4.6-1.5c1.2-0.4,1.7-0.5,0.4-0.3c0,0-1.8,0.4-3.5,0.8c-1.7,0.5-3.5,0.9-3.5,0.9
							l1.6-0.2c-5.5,2-5.8,2.7-16.1,5.2c-6.5,1.6-3.5,0.1-6.1,0.8c0-0.1-0.9,0.1-3.9,1.1c0,0-3.7,1.1-7.5,2.1
							c-1.9,0.5-3.7,1.2-5.1,1.6c-1.4,0.5-2.3,0.8-2.3,0.8l6.2-0.9c-6.3,2.7-13.8,4.6-6.6,3.6c-1.3,0.2-3.2,0.6-5.4,1.2
							c-2.2,0.6-4.9,1.3-7.7,2.3c-2.8,1-5.9,2.1-9.1,3.3c-3.2,1.2-6.5,2.4-9.6,3.8c-3.2,1.4-6.3,2.8-9.3,4.1
							c-1.5,0.7-2.9,1.3-4.3,1.9c-1.4,0.6-2.7,1.3-3.9,1.9c-4.9,2.4-8.7,4.2-10.2,4.7c-4.2,2.4-8.2,4.9-12.6,7.4
							c-2.2,1.2-4.5,2.5-6.8,3.7c-1.2,0.6-2.4,1.3-3.6,2c-1.2,0.7-2.4,1.4-3.7,2.2c2.6-1.3,4.8-1-4,4c0.4-1-0.4-1-1.9-0.4
							c-0.8,0.3-1.8,0.8-2.9,1.4c-1.1,0.6-2.4,1.2-3.7,2.1c-5.2,3.2-11.7,7.2-15.6,8.6c6.7-3.2-23.3,16.9-12.9,11.7
							c-0.9,0.6-1.5,1-2.1,1.3c-0.5,0.3-0.9,0.5-1.1,0.7c-0.5,0.2-0.6,0.1-0.6,0c-0.1-0.3,0-0.8-2.7,0.9c-3.8,3.3-8,6.6-12.3,9.9
							c-4.2,3.5-8.6,7.1-13.2,10.7c-0.6,0.5-1.1,0.9-1.7,1.4l-1.7,1.4c-1.1,1-2.2,1.9-3.4,2.9c-2.2,2-4.5,4-6.8,6
							c-1.1,1-2.3,2-3.4,3c-1.1,1.1-2.2,2.1-3.3,3.2c-2.2,2.2-4.4,4.4-6.6,6.6c0,0.5,3.3-2-0.1,2.1c0,0-0.7,0.5-1.7,1.2
							c-0.5,0.4-1.1,0.8-1.7,1.3c-0.6,0.5-1.2,1-1.9,1.5c-2.6,2.1-5.1,4.2-5.1,4.2c-1.6,1.9-2,3-2.9,4.5c-0.4,0.7-1,1.5-1.9,2.4
							c-0.9,1-2.1,2.1-3.8,3.6c1-0.8,2.6-1.9,0.6,0.7c-16.8,17.6-31.6,37.8-44.8,58.9c-13.3,21.1-25.1,43.2-36.5,65.3
							c3.3-5.9,1.6-1.8-0.4,3c1.5-3,0.8,0.4,1.5,0c0,0-2.3,4.6-4.7,9.3c-0.6,1.2-1.1,2.3-1.6,3.4c-0.5,1.1-1,2.1-1.4,3
							c-0.8,1.8-1.3,3-1.3,3c0,2-2,7.2-3.8,12.2c-1.6,5.1-3.2,10-3,11.2l1.8-6.3c-0.6,4.4,1.1,1.7,3.1-1.7c1-1.7,2.2-3.7,3.2-5
							c1-1.4,1.8-2.2,2.2-1.7c0.4-2.4,1.4-5,2.6-7.9c0.6-1.4,1.3-2.9,2-4.4c0.4-0.8,0.7-1.5,1.1-2.3c0.4-0.8,0.8-1.6,1.2-2.3
							c1.6-3.2,3.3-6.5,4.9-10.1c0.8-1.8,1.5-3.6,2.2-5.4c0.7-1.9,1.4-3.7,2-5.6c1.9-3-0.7,2.9,0.5,1.4c1-3.9,2.9-8.4,7.2-16.3
							c0,0-0.1,0.2-0.1,0.5c-0.1,0.2-0.1,0.5-0.1,0.5c2.9-5.6,5.5-10.3,7.9-14.7c0.6-1.1,1.2-2.2,1.8-3.2c0.6-1,1.3-2,1.9-3
							c1.3-2,2.5-4,3.7-6c4.9-8,10.5-16,18.6-27.5l-2,1.2c3.6-4.9,4.6-5.7,6.5-7.9c2.9-6.5-10,13.8-7.6,7.7c1.6-1.4,3.9-4.2,6.6-7.8
							c2.7-3.5,5.7-7.9,9-11.9c3.2-4.1,6.4-8.1,9.1-11.2c2.8-3.1,5.1-5.3,6.4-6c6.1-7.1-2.6,1.4,3.5-5.7l2.1-1.5l1-2.3
							c4.3-4.4,6.9-6.2,7.4-6c-1.1,1-2.8,3.2-3.8,4.4c3-2.7,6.7-6.8,10-10.5c1.6-1.9,3.3-3.5,4.5-4.8c1.3-1.3,2.3-2.3,2.8-2.8
							c0,0-1.7,1.5-3.3,3c-0.8,0.8-1.7,1.5-2.3,2.1c-0.6,0.6-1,1-1,1c4.4-4.6,9.2-9.3,14-14.2c5.1-4.6,10.2-9.4,15.5-14.1
							c2.7-2.3,5.4-4.5,8-6.8c1.3-1.1,2.6-2.2,3.9-3.4c0.7-0.6,1.3-1.1,1.9-1.7c0.7-0.5,1.3-1.1,2-1.6c2.6-2.1,5.2-4.2,7.8-6.3
							c1.3-1,2.5-2.1,3.7-3.1c0.6-0.5,1.2-1,1.8-1.5c0.6-0.5,1.2-1,1.8-1.4l-1.8,0.7c7.4-5.8,10.6-7.9,14-10
							c1.7-1.1,3.5-2.1,5.9-3.6c2.4-1.5,5.5-3.5,9.8-6.4l-0.6,0.5c0.8-0.7,1.7-1.4,2.7-2.1c1-0.7,2-1.4,3.1-2.1
							c2.2-1.4,4.6-2.9,7-4.3c-4.2,3.1,9-4.1,3.4-0.1c2.1-1.4,3.9-2.5,5.3-3.4c1.4-0.9,2.6-1.6,3.5-2.1c1.8-1.1,2.7-1.7,3.3-2.2
							c1.3-1,1.8-1.7,7.4-5.6l3.1-0.7c3.8-2.6,4-3.1,13.3-7.8c-7.4,4.3,6.4-1.8-1.8,3.1c1.3-0.5,2.5-1,3.7-1.5
							c1.2-0.4,2.3-0.9,3.4-1.3c2.2-0.9,4.2-1.8,6.2-2.6c3.8-1.7,7.1-3.4,10.1-4.7c6-2.6,10.7-4.8,15.8-5.4c2.2-1.3,2.1-1.6,0.9-1.4
							c-0.6,0.1-1.5,0.3-2.6,0.6c-1,0.3-2.2,0.8-3.5,1.2c-4.9,1.8-10.3,4-7.7,2.8c-2.3,0.5-0.5-0.6,2.6-2.1c1.6-0.8,3.5-1.6,5.4-2.4
							c1-0.4,1.9-0.8,2.9-1.2c0.9-0.3,1.8-0.6,2.7-0.9c3.3-1.1,6.3-1.4,10.5-2.2c2.1-0.3,4.5-0.9,7.5-1.5c3-0.6,6.4-1.5,10.6-2.7
							c-1.7,0.5-1.7,0.7-3.4,1.1c3.2-0.6,6.2-1.8,9.4-2.8c3.2-0.9,6.7-1.9,10.6-2.4c2-1.1,4.5-1.8,6.7-2.3c2.1-0.5,3.9-0.9,4.4-1.8
							c0,0-1,0.2-2.4,0.5c-0.7,0.2-1.6,0.4-2.5,0.6c-0.9,0.2-1.9,0.5-2.8,0.8c-3.9,1-7.7,2.1-7.7,2.1c2.2-0.6,4.3-1.4,6.5-2.1
							c2.2-0.8,4.4-1.6,6.9-2.2c2.5-0.7,5.1-1.4,8.1-2c1.5-0.3,3.1-0.6,4.7-0.9c0.8-0.1,1.7-0.3,2.6-0.4c0.9-0.1,1.8-0.2,2.7-0.3
							c-0.5,0.3-1.9,0.6-3.5,1.1c-1.6,0.5-3.4,1-4.9,1.4c2.2-0.2,4.2-0.7,6.3-1.1c2.1-0.4,4.2-0.8,6.5-0.9c-0.3,0.4-1.6,0.9-3.6,1.3
							c-1,0.2-2.1,0.4-3.4,0.7c-1.3,0.3-2.6,0.6-4.1,0.9c-2.9,0.6-6,1.2-9,1.9c-1.5,0.3-3,0.7-4.3,1.1c-1.4,0.4-2.6,0.8-3.8,1.3
							c1.2-0.1,2.8-0.6,4.7-1c1.8-0.4,3.7-0.9,5.4-1.3c3.3-0.8,5.4-1.3,3.2,0c6.4-3.7,16.8-2.8,28.2-6l-0.7,1c1.8-0.3,5.6-1.2,9-1.5
							l-6,1.9c4.7-1,9.2-1.3,13.8-1.5c4.5,0,9,0.1,13.5-0.5c-19,1.2-4.3-0.9-12.4-1.1c5.9-0.7,9.7-0.9,12.4-0.9
							c2.8,0,4.6,0.2,6.5,0.6c1.9,0.3,3.8,0.7,7,0.9c1.6,0.1,3.4,0.2,5.7,0.2c1.1,0,2.4,0,3.8,0c1.4,0.1,2.9,0.1,4.5,0.1
							c-3.5-0.1-13.3-0.6-7.8-1.1c1.3,0,2.6,0,4,0.2c1.4,0.1,2.8,0.3,4.1,0.4c2.7,0.3,5.1,0.6,6.6,0.9c8.7,0.2,8,0,6.1-0.4
							c-1.9-0.4-5.1-0.8-1.3-1c0.7,0.2,1.4,0.3,2.1,0.4c0.6,0.1,1.3,0.2,1.9,0.3c1.2,0.1,2.3,0.1,3.5,0c2.4-0.1,5-0.4,8.8-0.3l0,1
							c1.2,0.1,2.3,0.3,3.3,0.4c1,0.1,1.8,0.2,2.6,0.3c1.5,0.2,2.7,0.3,3.5,0.3c1.7,0.1,2.3-0.1,2.9-0.3c0.6-0.2,1.1-0.3,2.5-0.3
							c1.5,0.1,3.9,0.4,8.3,1.3c0,0-1.9,0-3.9,0.1c-1.9,0-3.8,0.1-3.8,0.1s0.6,0.1,1.5,0.1c0.9,0.1,2,0.2,3.2,0.4
							c2.3,0.3,4.6,0.6,4.6,0.6l-2.1,0.8c5.1,0.4,8.4,0.9,11.6,1.5c3.3,0.6,6.4,1.4,11.3,2.6c-1.1-0.6-0.6-0.9,1.1-0.9
							c1.8,0,4.9,0.4,9.2,1.5c2.9,1,2,1,1.9,1.1c0,0.1,0.1,0.1,1.1,0.4c0.9,0.3,2.6,0.7,5.7,1.5c-2.9-0.1-6.1-0.2-11.1-2.4
							c-0.6,0.2-2.8-0.1-3.5,0.1c6.1,2.1,15.7,4.1,20.1,5.4c-1.7-0.5-3.7-1.1-4.6-1.5c0,0,1.1,0.2,2.8,0.6c1.7,0.3,3.9,0.8,6.1,1.3
							c4.4,0.9,8.9,2,8.9,2c2.6,1.2,0.4,0.8-1.9,0.4c1.8,0.5,3.3,0.8,5,1.3c1.7,0.4,3.6,0.9,6.2,1.8c-1.6,0.3-1.5,1.1-8.9-0.9
							c0,0,1,0.3,2.6,0.7c1.6,0.4,3.6,1,5.7,1.6c2.1,0.6,4.1,1.2,5.7,1.7c1.6,0.5,2.6,0.8,2.6,0.8c1,0.7,8,4,5.8,3.4
							c8.7,3.8,22.3,7.3,33.5,13.3c0.7,0.1,1.9,0.6,4.4,1.7c10.6,5.4,19.5,11.2,32.1,17.5c0,0,1.6,1.3,3.1,2.7c1.5,1.3,3,2.7,3,2.7
							c9.5,5.6-8.2-7.3,7.6,2.1c11.1,6.8,3.4,3.7,7,6.6c5.7,3,15.8,8.4,24.4,16.9c-1.6-1.2-3-2.2-4.4-3.3
							C689.2,132.3,687.9,131.2,686.4,130.1z M772.7,232.8c-0.6-1.2-1.6-2.8-2.5-4.5c-0.9-1.7-1.7-3.2-1.9-4.2
							c0.6,0.5,1.1,1.1,1.5,1.7c0.4,0.6,0.7,1.2,1,1.9C771.4,229.1,772,230.7,772.7,232.8z M742,425.4c0.5-0.9,1.3-1.9,2.2-3
							c0.5-0.5,1-1.1,1.5-1.7c0.5-0.6,1.1-1.2,1.7-1.8C746,421,744.1,423.1,742,425.4z M214,485.4c0.1,0.1,0.2,0.1,0.3,0.1
							C218.8,489.5,217.2,488.1,214,485.4z M204.6,477.2c-1.1-0.7-1.1-0.5-0.8-0.1c0.8,0.4,3,2.1,5.4,4.2
							C208.7,480.5,207.6,479.4,204.6,477.2z M323.4,52.2l2.4-0.4C320.6,53.6,322,52.9,323.4,52.2z"/>
						<path class="st3" d="M755,405.8c0.6-0.5,0.8-0.6,1.1-0.6C756.5,404.2,756.3,404.1,755,405.8z"/>
						<path class="st3" d="M613.7,86.8l-0.4-0.2c-0.2,0-0.4,0-0.5,0L613.7,86.8z"/>
						<path class="st3" d="M378.8,553c2.4,0.6,3.8,1,4.7,1.4C383.7,554.1,382.6,553.7,378.8,553z"/>
						<path class="st3" d="M155.8,432.2c0,0,1.4,1.5,2.8,2.9c1.4,1.4,2.8,2.9,2.8,2.9c-2.6-2.8-3.5-4-4.6-5.6
							C156.7,432.7,157.4,434.1,155.8,432.2z"/>
						<path class="st3" d="M119,373.2c-0.7-0.9-1.3-2.1-2-3l-0.2,0.5C119.4,375,121.6,377.6,119,373.2z"/>
						<path class="st3" d="M153.3,424.5c0.2-1-3.2-4.7-6.9-8.9c0.2,0.3,0.4,0.5,0.6,0.8C145.1,415.9,149.2,420.2,153.3,424.5z"/>
						<path class="st3" d="M145.6,414.7c-1.1-1.3-2.2-2.7-3.2-4C141.6,410.4,143.6,412.3,145.6,414.7z"/>
						<path class="st3" d="M192.2,467.2c-1.8-1.9-1.9-0.3-2.8-1.6c-1.5-0.6,2.1,2.1,4.5,3.9c1.3,0.8,2.2,1.4,2.2,1.2
							C196,470.5,195,469.6,192.2,467.2z"/>
						<path class="st3" d="M152.5,419.3l0.5,2.2c0,0,0.7,0.5,1.3,0.9c0.7,0.5,1.3,0.9,1.3,0.9s-0.8-1-1.6-2
							C153.2,420.4,152.5,419.3,152.5,419.3z"/>
						<path class="st3" d="M181.7,452l-6.1-6.5c0,0.2-0.9-0.5-1.9-1.5C177.5,448,181.7,452.4,181.7,452z"/>
						<path class="st3" d="M173.7,444.1c-2-2.1-3.9-4-5.1-5C169.7,440.2,172.1,442.5,173.7,444.1z"/>
						<path class="st3" d="M160.6,428.3c0,0,0.4,0.5,0.8,1.1c0.4,0.5,0.8,1,0.8,1l4.2,4.7c0,0-1.4-1.7-2.9-3.4
							C162,430.1,160.6,428.3,160.6,428.3z"/>
						<path class="st3" d="M257.2,510.5c0,0,2.1,1.2,4.2,2.4c2.1,1.1,4.3,2.3,4.3,2.3c1,0.2-1.2-1.3-4.4-3
							C259.2,511.2,256.1,509.4,257.2,510.5z"/>
						<path class="st3" d="M234.1,492.2c2,1.7,2,2,3,3.1l0.9-0.9L234.1,492.2z"/>
						<path class="st3" d="M257.8,507.4c0.5,0.1,3.6,1.7,5.3,2.5c1.7,0.7,1.9,0.8-3.3-2.3C258.8,507.3,250.4,502.5,257.8,507.4z"/>
						<polygon class="st3" points="392.9,558.9 390.5,558.5 390.5,560.6 						"/>
						<path class="st3" d="M519.5,548.6c-5.6,1-6.2,1.4-6.7,1.8c-0.5,0.4-0.8,0.8-5.9,1.4c-2.5,1,8.3-1.1,5.7-0.2
							C519.3,549.7,522.9,549.2,519.5,548.6z"/>
						<path class="st3" d="M512.7,551.6c-1.1,0.3-2.2,0.6-3.4,1C511.2,552.1,512.1,551.8,512.7,551.6z"/>
						<polygon class="st3" points="5.7,353.8 2.9,360.8 5.1,356.4 						"/>
						<path class="st3" d="M2.7,367.9l-1.8,1.3l-0.3,4.6C1.1,372.2,2,369,2.7,367.9z"/>
						<path class="st3" d="M777.3,252.3l0.5,0.4c0-1.1-0.4-2.8-1.5-5.9c0,0,0.3,1.4,0.6,2.7C777,251,777.3,252.3,777.3,252.3z"/>
						<polygon class="st3" points="728.2,169.3 729.3,170.5 728.1,167.4 						"/>
						<path class="st3" d="M664.3,117.6c1.4,1,2.9,1.9,4.5,2.9c1.5,1,3.1,2,4.4,3C667.1,119.4,664.3,115.9,664.3,117.6z"/>
					</g>
				</g>
			</g>
		</g>
	</g>
	<g>
		<g>
			<path d="M-513-282.3c2.9,0,2.9-1.4,0-1.4C-515.9-283.7-515.9-282.3-513-282.3L-513-282.3z"/>
		</g>
	</g>
</g>
</svg>
